# xmcd
#
# Track frame offsets:
#	150
#	30018
#	50901
#	77741
#	110863
#	152604
#	181349
#	200918
#
# Disc length: 3262 seconds
#
# Revision: 0
# Processed by: cddbd v1.5.2PL0 Copyright (c) Steve Scherf et al.
# Submitted via: audiograbber 1.83.01
#
DISCID=670cbc08
DTITLE=Mark Knopfler  - Live in Dresden 2013
DYEAR=2013
DGENRE=Folk-Rock
TTITLE0=What It Is
TTITLE1=Corned Beef City
TTITLE2=Cleaning My Gun
TTITLE3=Privatering
TTITLE4=Father And Son&Hill Farmer's Blues
TTITLE5=I Dug Up A Diamonds
TTITLE6=I Used To Could
TTITLE7=Romeo and Juliet
EXTD=
EXTT0=
EXTT1=
EXTT2=
EXTT3=
EXTT4=
EXTT5=
EXTT6=
EXTT7=
PLAYORDER=
